<?xml version="1.0" encoding="UTF-8"?>
<svg width="700pt" height="700pt" version="1.1" viewBox="0 0 700 700" xmlns="http://www.w3.org/2000/svg">
 <path d="m426.82 350c9.1992-3.6328 16.945-10.195 22.039-18.672 5.0938-8.4805 7.25-18.402 6.1367-28.227-3.0312-18.305-14.328-34.188-30.625-43.051 7.1523-6.9102 11.352-16.316 11.727-26.25 0.62891-19.648-8.7227-38.285-24.852-49.527l-4.1992-2.625c1.7773-1.2852 3.418-2.75 4.8984-4.375 5.8047-6.4414 8.7148-14.98 8.0508-23.625-1.5-16.129-11.043-30.414-25.375-37.973-14.555-7.8047-30.977-11.445-47.465-10.52-16.484 0.92969-32.398 6.3828-45.984 15.77-13.43 9.0352-21.395 24.238-21.176 40.426 0.25 6.8008 2.6367 13.355 6.8242 18.723-13.879 9.3555-22.812 24.457-24.324 41.125-0.63672 8.7695 1.5508 17.508 6.2422 24.941 4.6914 7.4336 11.645 13.164 19.832 16.359-5.0938 2.875-9.9492 6.1523-14.523 9.8008-18.348 12.91-28.578 34.5-26.949 56.875 1.3203 10.922 6.8438 20.902 15.398 27.824-20.625 12.062-33.785 33.711-35 57.574 0 57.926 76.648 57.926 122.5 57.926s122.5 0 122.5-57.926c-0.92969-13.926-5.6836-27.324-13.742-38.719-8.0625-11.395-19.109-20.344-31.934-25.855zm-129.32-126.18c0.875-12.773 20.477-25.551 47.949-25.551h6.4766c13.969 0.70703 27.445 5.3789 38.848 13.477 6.6094 4.2734 10.82 11.402 11.375 19.25 0 7.875-17.5 10.5-52.5 7.875-14.836-0.44531-29.547-2.8555-43.75-7.1758-8.3984-3.1484-8.3984-5.4258-8.3984-7.875zm25.023-75.074c8.1172-5.5195 17.664-8.5625 27.477-8.75 9.6406-0.8125 19.305 1.1914 27.824 5.7734 3.5508 1.7617 6.3477 4.7461 7.875 8.4023-9.2617 2.0039-18.699 3.1172-28.176 3.3242h-14c-9.4844 0.90234-19.035 0.90234-28.523 0 1.3711-3.7305 4.043-6.8359 7.5234-8.75zm-26.25 185.68c-13.477-2.2734-14-6.6484-14.352-9.4492h0.003906c0.17969-10.254 5.5078-19.723 14.176-25.203 14.793-10.977 32.254-17.805 50.574-19.773 5.1055-0.67188 10.25-1.0234 15.398-1.0508 13.207-0.25 26.316 2.25 38.5 7.3516 11.727 5.25 19.074 12.949 20.125 20.824 0 2.9766 0.875 7.1758-11.551 12.773-18.027 6.3555-36.781 10.414-55.824 12.078h-3.3242c-10.859 0.039063-21.691 1.0352-32.375 2.9727-7.1133 0.54297-14.258 0.42578-21.352-0.34766zm53.727 103.07c-61.25 0-87.5-6.8242-87.5-22.926 0-16.102 24.148-37.801 61.074-44.625 9.4492 0 18.898-1.2266 28.523-2.4492 50.402 0 85.402 25.199 85.402 47.074 0 16.102-26.25 22.926-87.5 22.926z"/>
</svg>
